<mxfile host="app.diagrams.net" modified="2024-05-14T05:41:03.702Z" agent="Mozilla/5.0 (Windows NT 10.0; Win64; x64) AppleWebKit/537.36 (KHTML, like Gecko) Chrome/124.0.0.0 Safari/537.36" version="24.2.0" etag="2OD7J_4nyX2M7oMka-Vo" type="github">
  <diagram name="第 1 页" id="z-6vBY-6ax6PxCqkO_pk">
    <mxGraphModel>
      <root>
        <mxCell id="0" />
        <mxCell id="1" parent="0" />
      </root>
    </mxGraphModel>
  </diagram>
</mxfile>
